<svg width="147" height="50" viewBox="0 0 147 50" fill="none" xmlns="http://www.w3.org/2000/svg">
<foreignObject x="-14" y="-14" width="175" height="78"><div xmlns="http://www.w3.org/1999/xhtml" style="backdrop-filter:blur(7px);clip-path:url(#bgblur_0_2_354_clip_path);height:100%;width:100%"></div></foreignObject><g filter="url(#filter0_i_2_354)" data-figma-bg-blur-radius="14">
<rect width="147" height="50" rx="25" fill="#E4760F" fill-opacity="0.14"/>
<path d="M73.5 34.35L72.05 33.03C66.9 28.36 63.5 25.28 63.5 21.5C63.5 18.42 65.92 16 69 16C70.74 16 72.41 16.81 73.5 18.09C74.59 16.81 76.26 16 78 16C81.08 16 83.5 18.42 83.5 21.5C83.5 25.28 80.1 28.36 74.95 33.04L73.5 34.35Z" fill="#E4760F"/>
</g>
<defs>
<filter id="filter0_i_2_354" x="-14" y="-14" width="175" height="78" filterUnits="userSpaceOnUse" color-interpolation-filters="sRGB">
<feFlood flood-opacity="0" result="BackgroundImageFix"/>
<feBlend mode="normal" in="SourceGraphic" in2="BackgroundImageFix" result="shape"/>
<feColorMatrix in="SourceAlpha" type="matrix" values="0 0 0 0 0 0 0 0 0 0 0 0 0 0 0 0 0 0 127 0" result="hardAlpha"/>
<feOffset dy="4"/>
<feGaussianBlur stdDeviation="2"/>
<feComposite in2="hardAlpha" operator="arithmetic" k2="-1" k3="1"/>
<feColorMatrix type="matrix" values="0 0 0 0 0 0 0 0 0 0 0 0 0 0 0 0 0 0 0.1 0"/>
<feBlend mode="normal" in2="shape" result="effect1_innerShadow_2_354"/>
</filter>
<clipPath id="bgblur_0_2_354_clip_path" transform="translate(14 14)"><rect width="147" height="50" rx="25"/>
</clipPath></defs>
</svg>
