<svg width="47" height="41" viewBox="0 0 47 41" fill="none" xmlns="http://www.w3.org/2000/svg">
<path d="M30.9458 3.77769C31.2999 3.77769 31.5874 4.06523 31.5874 4.41929C31.5874 4.77334 31.2999 5.06089 30.9458 5.06089C28.2926 5.06107 25.9024 6.77985 25.0464 9.27085L24.9683 9.51402C24.8776 9.81987 24.579 10.0053 24.271 9.96421L24.2632 9.97398L24.1714 9.94566C23.8323 9.84451 23.6387 9.48824 23.7397 9.14878C24.6612 6.05235 27.5307 3.77787 30.9458 3.77769Z" fill="#E4760F" stroke="white" stroke-width="0.3"/>
<path d="M37.8229 28.4884H34.8757C34.6045 28.4884 34.3845 28.2684 34.3845 27.9972C34.3845 27.726 34.6045 27.506 34.8757 27.506H37.8229C41.8854 27.506 45.1909 24.2005 45.1909 20.138C45.1909 16.0754 41.8854 12.7699 37.8229 12.7699H37.752C37.6096 12.7699 37.4741 12.7082 37.3808 12.6005C37.2875 12.4928 37.2454 12.35 37.2657 12.2089C37.3096 11.903 37.3317 11.5956 37.3317 11.2963C37.3317 7.77549 34.4669 4.91068 30.946 4.91068C29.5763 4.91068 28.27 5.33873 27.1683 6.14885C26.9262 6.32674 26.5823 6.2478 26.4424 5.98149C23.3222 0.0400754 15.1726 -0.757796 10.9475 4.41072C9.16764 6.58813 8.4683 9.42061 9.02869 12.1812C9.09044 12.4861 8.85711 12.7703 8.54731 12.7703H8.35047C4.28792 12.7703 0.982451 16.0758 0.982451 20.1383C0.982451 24.2009 4.28792 27.5064 8.35047 27.5064H11.2976C11.5689 27.5064 11.7889 27.7263 11.7889 27.9976C11.7889 28.2688 11.5689 28.4888 11.2976 28.4888H8.35047C3.74612 28.4888 0 24.7427 0 20.1383C0 15.6631 3.53873 11.9987 7.96488 11.7966C7.54911 8.93254 8.34416 6.04357 10.1868 3.789C14.7104 -1.74508 23.3796 -1.12478 27.0443 5.04612C28.2134 4.31317 29.5511 3.92867 30.9459 3.92867C35.2116 3.92867 38.5918 7.55937 38.296 11.8012C42.6814 12.0472 46.1731 15.6922 46.1731 20.1379C46.1731 24.7427 42.427 28.4884 37.8227 28.4884L37.8229 28.4884Z" fill="#E4760F"/>
<path d="M23.021 15.2892C29.8751 15.2893 35.4507 20.8657 35.4507 27.7199C35.4506 34.5739 29.8751 40.1495 23.021 40.1496C16.1669 40.1496 10.5904 34.574 10.5903 27.7199C10.5903 20.8658 16.1668 15.2892 23.021 15.2892ZM23.021 16.5724C16.8744 16.5724 11.8735 21.5734 11.8735 27.7199C11.8736 33.8665 16.8745 38.8674 23.021 38.8674C29.1675 38.8673 34.1684 33.8664 34.1685 27.7199C34.1685 21.5733 29.1675 16.5725 23.021 16.5724Z" fill="#E4760F" stroke="white" stroke-width="0.3"/>
<path d="M23.2456 22.8032C23.5269 22.8032 23.7552 23.0317 23.7554 23.313V32.6635C23.7552 32.9452 23.5269 33.1733 23.2456 33.1733C22.9644 33.1732 22.736 32.9448 22.7358 32.6635V23.313C22.736 23.0318 22.9644 22.8033 23.2456 22.8032Z" fill="#E4760F" stroke="#E4760F" stroke-width="0.3"/>
<path d="M22.8848 22.9535C23.0836 22.7544 23.4065 22.7547 23.6055 22.9535L26.4824 25.8304C26.6815 26.0295 26.6815 26.352 26.4824 26.5511C26.3828 26.651 26.2519 26.7005 26.1221 26.7005C25.992 26.7005 25.8611 26.6504 25.7617 26.5511L23.2451 24.0345L20.7285 26.5511C20.5296 26.7502 20.2068 26.7501 20.0078 26.5511C19.809 26.352 19.8088 26.0294 20.0078 25.8304L22.8848 22.9535Z" fill="#E4760F" stroke="#E4760F" stroke-width="0.3"/>
</svg>
