<?xml version="1.0" standalone="no"?>
<!DOCTYPE svg PUBLIC "-//W3C//DTD SVG 20010904//EN"
 "http://www.w3.org/TR/2001/REC-SVG-20010904/DTD/svg10.dtd">
<svg version="1.0" xmlns="http://www.w3.org/2000/svg"
 width="61.000000pt" height="70.000000pt" viewBox="0 0 61.000000 70.000000"
 preserveAspectRatio="xMidYMid meet">
<g transform="translate(0.000000,70.000000) scale(0.100000,-0.100000)" stroke="none">
<path d="M283 690 c-43 -14 -113 -85 -150 -156 -62 -118 -114 -299 -126 -445
l-5 -55 43 -12 c70 -19 223 -25 310 -13 93 13 194 58 223 99 27 38 35 84 22
131 -12 44 -63 111 -85 111 -25 0 -26 18 -3 57 18 29 23 53 23 104 0 56 -4 71
-27 101 -53 70 -146 102 -225 78z m149 -50 c81 -54 98 -128 51 -219 -26 -50
-32 -54 -93 -75 -89 -29 -169 -84 -273 -189 l-88 -88 7 48 c14 102 64 275 101
355 86 183 186 240 295 168z m-73 -373 c-59 -55 -193 -145 -245 -163 -28 -10
26 46 103 107 55 45 183 120 201 119 4 -1 -23 -29 -59 -63z m173 36 c25 -22
48 -77 48 -114 0 -47 -66 -108 -145 -133 -94 -31 -375 -34 -375 -5 0 5 6 9 13
9 21 0 138 59 207 105 36 24 92 71 125 105 63 64 86 70 127 33z"/>
</g>
</svg>
