<svg width="354" height="343" viewBox="0 0 354 343" fill="none" xmlns="http://www.w3.org/2000/svg">
<path fill-rule="evenodd" clip-rule="evenodd" d="M63.9883 0C63.9883 11.0457 73.2298 20 84.6297 20C96.0297 20 105.271 11.0457 105.271 0H125.913C125.913 11.0457 135.154 20 146.554 20C157.954 20 167.195 11.0457 167.195 0H187.837C187.837 11.0457 197.078 20 208.478 20C219.878 20 229.12 11.0457 229.12 0H249.761C249.761 11.0457 259.002 20 270.402 20C281.802 20 291.044 11.0457 291.044 0H320.974C339.214 0 354 14.3269 354 32V170H348.794V174H354V311C354 328.673 339.214 343 320.974 343H33.0262C14.7864 343 0 328.673 0 311V174H5.2057V170H0V32C0 14.3269 14.7864 0 33.0262 0H63.9883ZM15.6181 174H26.0295V170H15.6181V174ZM36.4409 174H46.8534V170H36.4409V174ZM57.2648 174H67.6762V170H57.2648V174ZM78.0886 174H88.5V170H78.0886V174ZM98.9114 174H109.324V170H98.9114V174ZM119.735 174H130.147V170H119.735V174ZM140.559 174H150.97V170H140.559V174ZM161.382 174H171.794V170H161.382V174ZM182.206 174H192.618V170H182.206V174ZM203.03 174H213.441V170H203.03V174ZM223.853 174H234.265V170H223.853V174ZM244.676 174H255.089V170H244.676V174ZM265.5 174H275.911V170H265.5V174ZM286.324 174H296.735V170H286.324V174ZM307.147 174H317.559V170H307.147V174ZM327.97 174H338.382V170H327.97V174Z" fill="#FFE9D4"/>
</svg>
