<svg width="20" height="20" viewBox="0 0 20 20" fill="none" xmlns="http://www.w3.org/2000/svg">
<path d="M13 14.571V16.991C12.9995 17.5236 12.7876 18.0342 12.4109 18.4107C12.0343 18.7871 11.5236 18.9988 10.991 18.999H3.01C2.47709 18.999 1.96599 18.7874 1.58907 18.4107C1.21215 18.0339 1.00027 17.5229 1 16.99V9.00902C1 8.47611 1.21163 7.96501 1.58836 7.58809C1.96509 7.21117 2.47609 6.99929 3.009 6.99902H5.963" stroke="#2A2A2A" stroke-width="2" stroke-linecap="round" stroke-linejoin="round"/>
<path d="M7.167 2.51C7.30738 1.98822 7.64903 1.54345 8.11698 1.27329C8.58493 1.00314 9.14094 0.929663 9.663 1.069L17.489 3.166C18.0108 3.30638 18.4555 3.64803 18.7257 4.11598C18.9959 4.58393 19.0693 5.13994 18.93 5.662L16.833 13.488C16.6926 14.0098 16.351 14.4545 15.883 14.7247C15.4151 14.9949 14.8591 15.0683 14.337 14.929L6.51 12.832C5.98822 12.6916 5.54345 12.35 5.27329 11.882C5.00314 11.4141 4.92966 10.8581 5.069 10.336L7.167 2.51Z" stroke="#2A2A2A" stroke-width="2" stroke-linecap="round" stroke-linejoin="round"/>
</svg>
