<svg width="21" height="19" viewBox="0 0 21 19" fill="none" xmlns="http://www.w3.org/2000/svg">
<path d="M15.3395 1.5C15.8856 1.49954 16.4262 1.6081 16.9298 1.81931C17.4334 2.03052 17.8897 2.34014 18.272 2.73C19.0598 3.52979 19.5014 4.60737 19.5014 5.73C19.5014 6.85264 19.0598 7.93022 18.272 8.73L10.502 16.5975L2.73203 8.73C1.94422 7.93022 1.50262 6.85264 1.50262 5.73C1.50262 4.60737 1.94422 3.52979 2.73203 2.73C3.1146 2.34042 3.57096 2.03096 4.07446 1.81972C4.57796 1.60848 5.11851 1.49968 5.66453 1.49968C6.21055 1.49968 6.75109 1.60848 7.25459 1.81972C7.7581 2.03096 8.21446 2.34042 8.59703 2.73L10.502 4.68L12.3995 2.745C12.7807 2.35049 13.2375 2.0369 13.7427 1.82298C14.2478 1.60906 14.7909 1.49921 15.3395 1.5ZM15.3395 2.01214e-06C14.5937 -0.000630028 13.8553 0.147643 13.1676 0.436128C12.4799 0.724614 11.8567 1.1475 11.3345 1.68L10.502 2.52L9.66953 1.68C9.14674 1.14846 8.52338 0.726309 7.83577 0.438145C7.14816 0.149981 6.41008 0.00157307 5.66453 0.00157307C4.91898 0.00157307 4.18089 0.149981 3.49329 0.438145C2.80568 0.726309 2.18232 1.14846 1.65953 1.68C0.595937 2.76272 0 4.21977 0 5.7375C0 7.25523 0.595937 8.71228 1.65953 9.795L6.08078 14.2725L10.502 18.75L19.3445 9.795C20.4081 8.71228 21.0041 7.25523 21.0041 5.7375C21.0041 4.21977 20.4081 2.76272 19.3445 1.68C18.8216 1.14852 18.1983 0.726292 17.5107 0.43788C16.8232 0.149468 16.0851 0.000623698 15.3395 2.01214e-06Z" fill="currentColor"/>
</svg>
